<?xml version="1.0" encoding="UTF-8" standalone="no"?>
<svg
   xmlns:dc="http://purl.org/dc/elements/1.1/"
   xmlns:cc="http://creativecommons.org/ns#"
   xmlns:rdf="http://www.w3.org/1999/02/22-rdf-syntax-ns#"
   xmlns:svg="http://www.w3.org/2000/svg"
   xmlns="http://www.w3.org/2000/svg"
   xmlns:xlink="http://www.w3.org/1999/xlink"
   xmlns:sodipodi="http://sodipodi.sourceforge.net/DTD/sodipodi-0.dtd"
   xmlns:inkscape="http://www.inkscape.org/namespaces/inkscape"
   width="48"
   height="48"
   id="svg2327"
   version="1.1"
   sodipodi:docname="videocanvas.svg"
   inkscape:version="0.92.4 5da689c313, 2019-01-14">
  <sodipodi:namedview
     pagecolor="#ffffff"
     bordercolor="#666666"
     borderopacity="1"
     objecttolerance="10"
     gridtolerance="10"
     guidetolerance="10"
     inkscape:pageopacity="0"
     inkscape:pageshadow="2"
     inkscape:window-width="1834"
     inkscape:window-height="1139"
     id="namedview2688"
     showgrid="false"
     inkscape:zoom="13.12567"
     inkscape:cx="-0.90740317"
     inkscape:cy="26.580016"
     inkscape:window-x="0"
     inkscape:window-y="0"
     inkscape:window-maximized="1"
     inkscape:current-layer="svg2327" />
  <defs
     id="defs3">
    <linearGradient
       id="linearGradient2541">
      <stop
         offset="0"
         id="stop2543"
         style="stop-color:#fee964;stop-opacity:1" />
      <stop
         offset="1"
         id="stop2545"
         style="stop-color:#fee964;stop-opacity:0" />
    </linearGradient>
    <linearGradient
       id="linearGradient2523">
      <stop
         offset="0"
         id="stop2525"
         style="stop-color:#ffffff;stop-opacity:1" />
      <stop
         offset="1"
         id="stop2527"
         style="stop-color:#ffffff;stop-opacity:0" />
    </linearGradient>
    <linearGradient
       id="linearGradient2675">
      <stop
         id="stop2677"
         offset="0"
         style="stop-color:#5b5b97;stop-opacity:1" />
      <stop
         id="stop2679"
         offset="1"
         style="stop-color:#1b1b43;stop-opacity:1" />
    </linearGradient>
    <linearGradient
       id="linearGradient2667">
      <stop
         id="stop2669"
         offset="0"
         style="stop-color:#ffffff;stop-opacity:1" />
      <stop
         id="stop2671"
         offset="1"
         style="stop-color:#fcfcff;stop-opacity:0" />
    </linearGradient>
    <linearGradient
       gradientUnits="userSpaceOnUse"
       y2="8.87"
       x2="16.32"
       y1="32.62"
       x1="19.15"
       gradientTransform="matrix(1.5760254,0,0,1.7647349,-0.5257366,-7.0679901)"
       id="linearGradient2681"
       xlink:href="#linearGradient2675" />
    <linearGradient
       xlink:href="#linearGradient2667"
       id="linearGradient2315"
       gradientUnits="userSpaceOnUse"
       gradientTransform="matrix(1.7115154,0,0,1.6723833,-1.2607065,-7.0679898)"
       x1="11.49"
       y1="1.65"
       x2="17.2"
       y2="26.73" />
    <radialGradient
       xlink:href="#linearGradient2523"
       id="radialGradient2529"
       cx="13.61"
       cy="11.58"
       fx="13.61"
       fy="11.58"
       r="1.86"
       gradientUnits="userSpaceOnUse"
       gradientTransform="matrix(1.952381,0,0,1.952381,-12.96362,-11.03238)" />
    <radialGradient
       xlink:href="#linearGradient2541"
       id="radialGradient2547"
       cx="16.09"
       cy="13.97"
       fx="16.09"
       fy="13.97"
       r="1.77"
       gradientUnits="userSpaceOnUse" />
    <radialGradient
       xlink:href="#linearGradient2541"
       id="radialGradient2559"
       gradientUnits="userSpaceOnUse"
       cx="16.09"
       cy="13.97"
       fx="16.09"
       fy="13.97"
       r="1.77" />
    <radialGradient
       xlink:href="#linearGradient2523"
       id="radialGradient2561"
       gradientUnits="userSpaceOnUse"
       gradientTransform="matrix(1.952381,0,0,1.952381,-12.96362,-11.03238)"
       cx="13.61"
       cy="11.58"
       fx="13.61"
       fy="11.58"
       r="1.86" />
    <radialGradient
       xlink:href="#linearGradient2541"
       id="radialGradient2569"
       gradientUnits="userSpaceOnUse"
       cx="16.09"
       cy="13.97"
       fx="16.09"
       fy="13.97"
       r="1.77" />
    <radialGradient
       xlink:href="#linearGradient2523"
       id="radialGradient2571"
       gradientUnits="userSpaceOnUse"
       gradientTransform="matrix(1.952381,0,0,1.952381,-12.96362,-11.03238)"
       cx="13.61"
       cy="11.58"
       fx="13.61"
       fy="11.58"
       r="1.86" />
    <radialGradient
       xlink:href="#linearGradient2541"
       id="radialGradient2582"
       gradientUnits="userSpaceOnUse"
       cx="16.09"
       cy="13.97"
       fx="16.09"
       fy="13.97"
       r="1.77" />
    <radialGradient
       xlink:href="#linearGradient2523"
       id="radialGradient2584"
       gradientUnits="userSpaceOnUse"
       gradientTransform="matrix(1.952381,0,0,1.952381,-12.96362,-11.03238)"
       cx="13.61"
       cy="11.58"
       fx="13.61"
       fy="11.58"
       r="1.86" />
    <linearGradient
       xlink:href="#linearGradient3759"
       id="linearGradient3955"
       gradientUnits="userSpaceOnUse"
       x1="398.16"
       y1="105.22"
       x2="600.70001"
       y2="276.78"
       gradientTransform="translate(-62.857143,25.714286)" />
    <linearGradient
       id="linearGradient3759">
      <stop
         offset="0"
         id="stop3761"
         style="stop-color:#ffffff;stop-opacity:1" />
      <stop
         id="stop4037"
         offset="0.5"
         style="stop-color:#ffffff;stop-opacity:0.5" />
      <stop
         offset="1"
         id="stop3763"
         style="stop-color:#ffffff;stop-opacity:0" />
    </linearGradient>
    <linearGradient
       xlink:href="#linearGradient3759"
       id="linearGradient3999"
       gradientUnits="userSpaceOnUse"
       x1="388.16"
       y1="335.07999"
       x2="529.27002"
       y2="518.76001"
       gradientTransform="translate(-62.857143,25.714286)" />
    <linearGradient
       xlink:href="#linearGradient3759"
       id="linearGradient4035"
       gradientUnits="userSpaceOnUse"
       x1="379.59"
       y1="601.35999"
       x2="558.13"
       y2="708.51001"
       gradientTransform="translate(-62.857143,25.714286)" />
  </defs>
  <metadata
     id="metadata4">
    <rdf:RDF>
      <cc:Work
         rdf:about="">
        <dc:format>image/svg+xml</dc:format>
        <dc:type
           rdf:resource="http://purl.org/dc/dcmitype/StillImage" />
        <dc:title />
      </cc:Work>
    </rdf:RDF>
  </metadata>
  <path
     style="fill:#ffffff;fill-rule:evenodd;stroke:#f0f0f0;stroke-width:1px;stroke-linecap:butt;stroke-linejoin:miter;stroke-opacity:1;fill-opacity:0"
     d="M 5.979798,12.552188 C 10.989899,8.9427607 37.656566,8.6734007 40.727273,14.16835 44.94592,21.717507 41.739819,30.591041 39.595958,34.154883 36.267129,39.688553 8.6842236,38.999115 6.6262627,33.777778 4.5713439,28.564159 2.3414508,18.149645 5.979798,12.552188 Z"
     id="path2692"
     inkscape:connector-curvature="0"
     sodipodi:nodetypes="csssc" />
  <path
     style="fill:#ffffff;fill-rule:evenodd;stroke:#f0f0f0;stroke-width:1px;stroke-linecap:butt;stroke-linejoin:miter;stroke-opacity:1;fill-opacity:0"
     d="m 23.757576,10.127946 0.05387,-8.13468"
     id="path2696"
     inkscape:connector-curvature="0" />
  <path
     style="fill:#ffffff;fill-rule:evenodd;stroke:#f0f0f0;stroke-width:1px;stroke-linecap:butt;stroke-linejoin:miter;stroke-opacity:1;fill-opacity:0"
     d="m 15.515152,37.818182 -4.309765,8.888889 0.05387,-0.107744 v 0"
     id="path2698"
     inkscape:connector-curvature="0" />
  <path
     style="fill:#ffffff;fill-rule:evenodd;stroke:#f0f0f0;stroke-width:1px;stroke-linecap:butt;stroke-linejoin:miter;stroke-opacity:1;fill-opacity:0"
     d="m 32.700337,37.548822 4.363636,9.373737"
     id="path2700"
     inkscape:connector-curvature="0" />
  <g
     transform="matrix(0.02725822,0,0,0.02725822,12.949384,11.42008)"
     id="g4074">
    <path
       inkscape:connector-curvature="0"
       d="M 130.08,66.73 H 609.92 V 798 H 130.08 Z"
       id="rect3600"
       style="fill:#ffffff;stroke:#000000;stroke-width:26.01000023;stroke-linejoin:round" />
    <path
       inkscape:connector-curvature="0"
       id="path3674"
       d="M 565.2,66.99 V 801.33"
       style="fill:none;stroke:#000000;stroke-width:114.98999786" />
    <path
       style="fill:#ffffff"
       inkscape:connector-curvature="0"
       id="path3676"
       d="m 528.53,249.51 h 71.66 v 69.93 h -71.66 z m 0.73,-108.12 h 71.66 v 69.93 h -71.66 z m -0.6,-89.12 h 71.66 v 49.93 h -71.66 z m 0.71,305.36 h 71.66 v 69.93 h -71.66 z m -0.25,108.08 h 71.66 v 69.93 h -71.66 z m -1.03,108 h 71.66 v 69.93 h -71.66 z m 1.28,106.42 h 71.66 v 69.93 h -71.66 z m -1.2,108.66 h 71.66 v 24.22 h -71.66 z" />
    <rect
       id="rect3694"
       width="267.35999"
       height="231.64999"
       x="236.46001"
       y="77.970001"
       style="fill:#3465a4;stroke:#000000;stroke-width:13.75" />
    <rect
       y="321.37"
       x="236.44"
       height="230.25999"
       width="267.39999"
       id="rect3696"
       style="fill:#3465a4;stroke:#000000;stroke-width:13.71000004" />
    <rect
       id="rect3698"
       width="264.62"
       height="230.33"
       x="237.83"
       y="563.34003"
       style="fill:#3465a4;stroke:#000000;stroke-width:13.64000034" />
    <path
       inkscape:connector-curvature="0"
       d="M 175.2,64.33 V 801.14"
       id="path3735"
       style="fill:none;stroke:#000000;stroke-width:115.19000244" />
    <path
       style="fill:#ffffff"
       inkscape:connector-curvature="0"
       d="m 138.53,249.51 h 71.66 v 69.93 h -71.66 z m 0.73,-108.12 h 71.66 v 69.93 h -71.66 z m -0.6,-89.84 h 71.66 v 50.65 h -71.66 z m 0.71,306.08 h 71.66 v 69.93 h -71.66 z m -0.25,108.08 h 71.66 v 69.93 h -71.66 z m -1.03,108 h 71.66 v 69.93 h -71.66 z m 1.28,106.42 h 71.66 v 69.93 h -71.66 z m -1.2,108.66 h 71.66 v 23.5 h -71.66 z"
       id="path3737" />
    <path
       inkscape:connector-curvature="0"
       d="m 250.46,93.96 c 0,67.22 0,134.44 0,201.66 79.79,0 159.58,0 239.38,0 0,-67.89 0,-135.77 0,-203.66 -79.79,0 -159.58,0 -239.37,0 v 1 1 z"
       id="rect3753"
       style="opacity:0.67000002;fill:url(#linearGradient3955);stroke:#ffffff;stroke-width:13.75" />
    <path
       inkscape:connector-curvature="0"
       d="m 250.46,337.37 c 0,66.75 0,133.5 0,200.25 79.79,0 159.58,0 239.38,0 0,-67.42 0,-134.83 0,-202.25 -79.79,0 -159.58,0 -239.37,0 v 1 1 z"
       id="rect3755"
       style="opacity:0.67000002;fill:url(#linearGradient3999);stroke:#ffffff;stroke-width:13.71000004" />
    <path
       inkscape:connector-curvature="0"
       d="m 251.83,579.34 c 0,66.78 0,133.56 0,200.34 78.88,0 157.75,0 236.63,0 0,-67.45 0,-134.9 0,-202.34 -78.87,0 -157.75,0 -236.62,0 v 1 1 z"
       id="rect3757"
       style="opacity:0.67000002;fill:url(#linearGradient4035);stroke:#ffffff;stroke-width:13.64000034" />
    <path
       inkscape:connector-curvature="0"
       id="path4047"
       d="m 250.46,93.96 c 0,67.22 0,134.44 0,201.66 79.79,0 159.58,0 239.38,0 0,-67.89 0,-135.77 0,-203.66 -79.79,0 -159.58,0 -239.37,0 v 1 1 z"
       style="opacity:0.67000002;fill:none;stroke:#ffffff;stroke-width:13.75" />
    <path
       inkscape:connector-curvature="0"
       id="path4049"
       d="m 250.46,337.37 c 0,66.75 0,133.5 0,200.25 79.79,0 159.58,0 239.38,0 0,-67.42 0,-134.83 0,-202.25 -79.79,0 -159.58,0 -239.37,0 v 1 1 z"
       style="opacity:0.67000002;fill:none;stroke:#ffffff;stroke-width:13.71000004" />
    <path
       inkscape:connector-curvature="0"
       id="path4051"
       d="m 251.83,579.34 c 0,66.78 0,133.56 0,200.34 78.88,0 157.75,0 236.63,0 0,-67.45 0,-134.9 0,-202.34 -78.87,0 -157.75,0 -236.62,0 v 1 1 z"
       style="opacity:0.67000002;fill:none;stroke:#ffffff;stroke-width:13.64000034" />
  </g>
</svg>
